<svg width="24" height="25" viewBox="0 0 24 25" fill="none" xmlns="http://www.w3.org/2000/svg">
<path d="M2.10024 18.5H22.1002V20.5H2.10024V18.5Z" fill="#25241D"/>
<path d="M14.0002 8.31908L15.0263 5.5L16.9056 6.18404L15.8796 9.00312L14.0002 8.31908Z" fill="#25241D"/>
<path d="M9.90547 8.31909L8.87941 5.50001L7.00003 6.18405L8.02609 9.00313L9.90547 8.31909Z" fill="#25241D"/>
<path d="M19.0002 11.3716L21.3447 9.49991L22.5925 11.0629L20.248 12.9346L19.0002 11.3716Z" fill="#25241D"/>
<path d="M3.24776 9.5L5.59232 11.3716L4.34456 12.9347L2 11.063L3.24776 9.5Z" fill="#25241D"/>
<path d="M17.0002 18.5C17.0658 18.1768 17.1002 17.8424 17.1002 17.5C17.1002 14.7385 14.8617 12.5 12.1002 12.5C9.33882 12.5 7.10024 14.7385 7.10024 17.5C7.10024 17.8424 7.13467 18.1768 7.20026 18.5H5.17113C5.12441 18.1734 5.10024 17.8395 5.10024 17.5C5.10024 13.634 8.23425 10.5 12.1002 10.5C15.9662 10.5 19.1002 13.634 19.1002 17.5C19.1002 17.8395 19.0761 18.1734 19.0294 18.5H17.0002Z" fill="#25241D"/>
</svg>
