<svg width="24" height="24" viewBox="0 0 24 24" fill="none" xmlns="http://www.w3.org/2000/svg">
<path d="M14.317 11.4776L13.3793 12.4398L21.1429 20.4068L19.5904 22L11.8268 14.0341L4.06321 22L2.51071 20.4068L12.7645 9.88437C12.1189 8.24274 12.7864 5.87888 14.5431 4.07387C16.6874 1.87451 19.642 1.33932 21.1429 2.87955C22.6438 4.41978 22.1223 7.45178 19.9791 9.65114C18.2202 11.4561 15.9167 12.1412 14.317 11.4776ZM3.28696 2.08296L10.6619 9.65114L7.55688 12.8386L3.28586 8.45569C2.46252 7.61052 2 6.46439 2 5.26932C2 4.07426 2.46252 2.92812 3.28586 2.08296H3.28696ZM18.4255 8.05683C19.8067 6.64054 20.0911 4.98539 19.5904 4.4716C19.0897 3.95782 17.4769 4.24964 16.0967 5.66593C14.7166 7.08334 14.4322 8.7385 14.9329 9.25228C15.4325 9.76494 17.0454 9.47312 18.4255 8.05683Z" fill="#25241D"/>
</svg>
