<svg width="24" height="24" viewBox="0 0 24 24" fill="none" xmlns="http://www.w3.org/2000/svg">
<g clip-path="url(#clip0_515_19918)">
<path d="M3.16202 4.47063C4.32208 3.31036 5.87802 2.63172 7.51762 2.57088C9.15721 2.51004 10.7592 3.07151 12.002 4.14263C13.2438 3.0733 14.8436 2.51246 16.4812 2.57239C18.1189 2.63232 19.6734 3.3086 20.8337 4.46584C21.994 5.62307 22.6743 7.17585 22.7385 8.81332C22.8027 10.4508 22.2461 12.0521 21.18 13.2966L13.415 21.0866C13.0583 21.4435 12.5798 21.6523 12.0755 21.6713C11.5713 21.6902 11.0785 21.5178 10.696 21.1886L10.586 21.0876L2.82202 13.2966C1.75651 12.0532 1.1996 10.4533 1.26263 8.81701C1.32567 7.18068 2.004 5.62844 3.16202 4.47063V4.47063ZM4.57602 5.88463C3.75826 6.70262 3.28687 7.80407 3.25969 8.9604C3.2325 10.1167 3.65161 11.2391 4.43002 12.0946L4.57602 12.2486L12.001 19.6736L17.304 14.3696L13.769 10.8346L12.709 11.8946C12.4305 12.1733 12.0998 12.3944 11.7358 12.5452C11.3718 12.6961 10.9817 12.7738 10.5877 12.7739C9.79201 12.7741 9.02881 12.4582 8.46602 11.8956C7.90323 11.3331 7.58695 10.5701 7.58676 9.77434C7.58658 8.97862 7.90249 8.21542 8.46502 7.65263L10.567 5.54963C9.73049 4.882 8.68343 4.53432 7.61371 4.56896C6.54398 4.60359 5.52161 5.01829 4.73002 5.73863L4.57602 5.88463V5.88463ZM13.062 8.71263C13.2495 8.52516 13.5039 8.41984 13.769 8.41984C14.0342 8.41984 14.2885 8.52516 14.476 8.71263L18.718 12.9546L19.426 12.2486C20.2575 11.4178 20.7308 10.2945 20.7449 9.11919C20.7589 7.94383 20.3124 6.80965 19.501 5.95918C18.6896 5.10872 17.5777 4.6095 16.403 4.56828C15.2282 4.52707 14.084 4.94713 13.215 5.73863L13.062 5.88463L9.88002 9.06663C9.70669 9.23984 9.60299 9.47067 9.58861 9.71529C9.57424 9.95992 9.65018 10.2013 9.80202 10.3936L9.88002 10.4806C10.0532 10.654 10.2841 10.7577 10.5287 10.772C10.7733 10.7864 11.0147 10.7105 11.207 10.5586L11.294 10.4806L13.062 8.71263V8.71263Z" fill="#25241D"/>
</g>
<defs>
<clipPath id="clip0_515_19918">
<rect width="24" height="24" fill="white"/>
</clipPath>
</defs>
</svg>
