<svg width="24" height="24" viewBox="0 0 24 24" fill="none" xmlns="http://www.w3.org/2000/svg">
<path d="M21 3V17C21 19.2091 19.2091 21 17 21C14.7909 21 13 19.2091 13 17C13 14.7909 14.7909 13 17 13C17.7286 13 18.4117 13.1948 19 13.5351V5H10V17C10 19.2091 8.20914 21 6 21C3.79086 21 2 19.2091 2 17C2 14.7909 3.79086 13 6 13C6.72857 13 7.41165 13.1948 8 13.5351V3H21ZM6 19C7.10457 19 8 18.1046 8 17C8 15.8954 7.10457 15 6 15C4.89543 15 4 15.8954 4 17C4 18.1046 4.89543 19 6 19ZM17 19C18.1046 19 19 18.1046 19 17C19 15.8954 18.1046 15 17 15C15.8954 15 15 15.8954 15 17C15 18.1046 15.8954 19 17 19Z" fill="#25241D"/>
</svg>
