<svg width="24" height="24" viewBox="0 0 24 24" fill="none" xmlns="http://www.w3.org/2000/svg">
<path d="M13.0556 19.7873H19.3889V10.2641L12 4.51762L4.61111 10.2641V19.7873H10.9444V16H13.0556V19.7873ZM21.5 20.8428C21.5 21.1228 21.3888 21.3913 21.1908 21.5892C20.9929 21.7872 20.7244 21.8984 20.4444 21.8984H3.55556C3.27561 21.8984 3.00712 21.7872 2.80917 21.5892C2.61121 21.3913 2.5 21.1228 2.5 20.8428V9.74895C2.49989 9.5881 2.53654 9.42935 2.60716 9.28483C2.67777 9.1403 2.78048 9.01383 2.90744 8.91507L11.3519 2.3474C11.5372 2.20326 11.7652 2.125 12 2.125C12.2348 2.125 12.4628 2.20326 12.6481 2.3474L21.0926 8.91507C21.2195 9.01383 21.3222 9.1403 21.3928 9.28483C21.4635 9.42935 21.5001 9.5881 21.5 9.74895V20.8428Z" fill="#25241D"/>
<path d="M6 2H8V7H6V2Z" fill="#25241D"/>
<path d="M13 11H17V13H13V11Z" fill="#25241D"/>
</svg>
