<svg width="24" height="24" viewBox="0 0 24 24" fill="none" xmlns="http://www.w3.org/2000/svg">
<path d="M7 3V5H5V9C5 11.2091 6.79086 13 9 13C11.2091 13 13 11.2091 13 9V5H11V3H14C14.5523 3 15 3.44772 15 4V9C15 11.9727 12.8381 14.4405 10.0008 14.9169L10 16.5C10 18.433 11.567 20 13.5 20C14.9973 20 16.275 19.0598 16.7749 17.7375C15.7283 17.27 15 16.2201 15 15C15 13.3431 16.3431 12 18 12C19.6569 12 21 13.3431 21 15C21 16.3711 20.0802 17.5274 18.824 17.8854C18.2102 20.252 16.0592 22 13.5 22C10.4624 22 8 19.5376 8 16.5L8.00019 14.9171C5.16238 14.4411 3 11.9731 3 9V4C3 3.44772 3.44772 3 4 3H7ZM18 14C17.4477 14 17 14.4477 17 15C17 15.5523 17.4477 16 18 16C18.5523 16 19 15.5523 19 15C19 14.4477 18.5523 14 18 14Z" fill="#25241D"/>
</svg>
