<svg width="24" height="25" viewBox="0 0 24 25" fill="none" xmlns="http://www.w3.org/2000/svg">
<path d="M2 22.5C2 20.4793 2.80272 18.5414 4.23157 17.1125C5.66042 15.6837 7.59835 14.881 9.61905 14.881C11.6397 14.881 13.5777 15.6837 15.0065 17.1125C16.4354 18.5414 17.2381 20.4793 17.2381 22.5H15.3333C15.3333 20.9845 14.7313 19.531 13.6597 18.4594C12.588 17.3878 11.1346 16.7857 9.61905 16.7857C8.10352 16.7857 6.65007 17.3878 5.57844 18.4594C4.5068 19.531 3.90476 20.9845 3.90476 22.5H2ZM9.61905 13.9286C6.4619 13.9286 3.90476 11.3714 3.90476 8.21429C3.90476 5.05714 6.4619 2.5 9.61905 2.5C12.7762 2.5 15.3333 5.05714 15.3333 8.21429C15.3333 11.3714 12.7762 13.9286 9.61905 13.9286ZM9.61905 12.0238C11.7238 12.0238 13.4286 10.319 13.4286 8.21429C13.4286 6.10952 11.7238 4.40476 9.61905 4.40476C7.51429 4.40476 5.80952 6.10952 5.80952 8.21429C5.80952 10.319 7.51429 12.0238 9.61905 12.0238ZM17.5086 15.5505C18.847 16.1533 19.9828 17.1298 20.7796 18.3626C21.5764 19.5954 22.0002 21.0321 22 22.5H20.0952C20.0955 21.399 19.7777 20.3214 19.1801 19.3967C18.5825 18.4721 17.7306 17.7397 16.7267 17.2876L17.5086 15.5505ZM16.8533 4.7981C17.8129 5.19362 18.6333 5.86527 19.2105 6.72784C19.7877 7.5904 20.0956 8.60499 20.0952 9.64286C20.0956 10.9498 19.6073 12.2097 18.7262 13.1751C17.8451 14.1404 16.6349 14.7414 15.3333 14.86V12.9429C16.039 12.8418 16.6937 12.5172 17.2012 12.0166C17.7088 11.5161 18.0426 10.866 18.1535 10.1618C18.2644 9.45766 18.1466 8.73647 17.8175 8.10415C17.4884 7.47182 16.9652 6.96166 16.3248 6.64857L16.8533 4.7981Z" fill="#25241D"/>
</svg>
