<svg width="24" height="24" viewBox="0 0 24 24" fill="none" xmlns="http://www.w3.org/2000/svg">
<path d="M17.2 19.5117L19 21.0117V21.5117H5V21.0117L6.8 19.5117H5C4.46957 19.5117 3.96086 19.301 3.58579 18.9259C3.21071 18.5509 3 18.0422 3 17.5117V6.51172C3 5.45085 3.42143 4.43344 4.17157 3.68329C4.92172 2.93315 5.93913 2.51172 7 2.51172H17C18.0609 2.51172 19.0783 2.93315 19.8284 3.68329C20.5786 4.43344 21 5.45085 21 6.51172V17.5117C21 18.0422 20.7893 18.5509 20.4142 18.9259C20.0391 19.301 19.5304 19.5117 19 19.5117H17.2ZM13 4.51172V10.5117H19V6.51172C19 5.98129 18.7893 5.47258 18.4142 5.09751C18.0391 4.72243 17.5304 4.51172 17 4.51172H13ZM11 4.51172H7C6.46957 4.51172 5.96086 4.72243 5.58579 5.09751C5.21071 5.47258 5 5.98129 5 6.51172V10.5117H11V4.51172ZM19 12.5117H5V17.5117H19V12.5117Z" fill="#25241D"/>
<circle cx="7.26735" cy="15.2049" r="1.22048" fill="#25241D"/>
<circle cx="16.7908" cy="15.2205" r="1.22048" fill="#25241D"/>
</svg>
