<svg width="24" height="24" viewBox="0 0 24 24" fill="none" xmlns="http://www.w3.org/2000/svg">
<g id="Planet" clip-path="url(#clip0_530_1768)">
<path id="Union" fill-rule="evenodd" clip-rule="evenodd" d="M19.7794 10.1265C19.4354 10.6838 18.8773 11.481 18.1491 12.2498C17.0887 13.369 15.7828 14.3066 14.3586 14.5101C12.2083 14.8172 11.2222 16.4348 10.9447 17.9255C10.8163 18.6153 10.826 19.3159 10.9379 19.9301C7.68799 19.499 5.05413 17.117 4.25194 13.9996C4.77396 14.39 5.34911 14.7483 5.94877 15.0138C6.67458 15.3352 7.50436 15.551 8.35284 15.46C9.23384 15.3655 10.0512 14.948 10.7121 14.1555C11.3111 13.4373 11.3998 12.6491 11.2825 11.9436C11.1905 11.3904 10.9575 10.8285 10.7758 10.3906L10.7758 10.3905C10.7504 10.3292 10.7259 10.2703 10.703 10.2142C10.4889 9.6893 10.3654 9.31974 10.3552 9.00198C10.3473 8.756 10.4048 8.5095 10.7071 8.20714C10.9227 7.99153 11.3692 7.78877 12.1197 7.59833C12.4733 7.50858 12.8482 7.43171 13.2452 7.35038L13.251 7.3492L13.251 7.34919L13.2511 7.34918C13.6366 7.27021 14.0465 7.18621 14.4304 7.08699C14.8138 6.98786 15.2129 6.86337 15.5718 6.69003C15.9266 6.51867 16.3101 6.26745 16.5865 5.8785C16.6574 5.77877 16.717 5.67721 16.7662 5.57419C18.2476 6.67478 19.3353 8.27549 19.7794 10.1265ZM21.879 10.4395C21.3647 7.15803 19.2548 4.40585 16.368 3.00191L16.3458 2.96632L16.3235 2.98038C15.015 2.35201 13.5486 2 12 2C6.47715 2 2 6.47715 2 12C2 17.5228 6.47715 22 12 22C17.5228 22 22 17.5228 22 12C22 11.4794 21.9602 10.9681 21.8835 10.4689C21.8873 10.4616 21.8909 10.4543 21.8945 10.4472L21.879 10.4395ZM19.8939 13.3063C19.7991 13.4128 19.7014 13.5192 19.601 13.6252C18.4113 14.881 16.7172 16.1934 14.6415 16.49C13.5993 16.6388 13.0854 17.3546 12.9109 18.2915C12.8224 18.7671 12.8378 19.2539 12.9204 19.6481C12.9447 19.7641 12.9721 19.86 12.9991 19.9382C16.5155 19.5002 19.3234 16.7799 19.8939 13.3063ZM14.9482 4.68912C14.944 4.6558 14.934 4.60888 14.9134 4.54705C14.0106 4.19387 13.0279 4 12 4C7.87773 4 4.48368 7.11787 4.04741 11.1241C4.70709 11.8501 5.73064 12.7299 6.75855 13.1851C7.29172 13.4212 7.75744 13.5124 8.13958 13.4714C8.48919 13.4339 8.83759 13.2805 9.17614 12.8745C9.31727 12.7053 9.35555 12.5479 9.30961 12.2717C9.2579 11.9608 9.12224 11.6303 8.92873 11.1589L8.92872 11.1589L8.92872 11.1589L8.85126 10.9698C8.64437 10.4627 8.37931 9.78634 8.3562 9.06611C8.33079 8.27409 8.59526 7.49058 9.29291 6.79293C9.92714 6.1587 10.8573 5.85527 11.6277 5.65977C12.0279 5.55821 12.4425 5.47328 12.825 5.39492L12.8438 5.39107C13.2414 5.30962 13.6022 5.23533 13.9298 5.15064C14.2597 5.06536 14.5144 4.97966 14.7019 4.88909C14.8682 4.80877 14.932 4.74814 14.9507 4.7268C14.9508 4.71906 14.9504 4.70677 14.9482 4.68912Z" fill="#25241D"/>
</g>
<defs>
<clipPath id="clip0_530_1768">
<rect width="24" height="24" fill="white"/>
</clipPath>
</defs>
</svg>
