<svg width="24" height="24" viewBox="0 0 24 24" fill="none" xmlns="http://www.w3.org/2000/svg">
<g id="Location" clip-path="url(#clip0_530_1754)">
<path id="Vector" d="M12.0421 22.0625L6.18419 16.2046C5.02562 15.046 4.23663 13.5699 3.91699 11.9629C3.59735 10.3559 3.76141 8.69024 4.38843 7.17649C5.01545 5.66275 6.07726 4.36893 7.4396 3.45864C8.80194 2.54836 10.4036 2.0625 12.0421 2.0625C13.6806 2.0625 15.2822 2.54836 16.6446 3.45864C18.0069 4.36893 19.0687 5.66275 19.6957 7.17649C20.3228 8.69024 20.4868 10.3559 20.1672 11.9629C19.8475 13.5699 19.0586 15.046 17.9 16.2046L12.0421 22.0625ZM16.5984 14.903C17.4995 14.0019 18.1131 12.8538 18.3616 11.604C18.6102 10.3541 18.4826 9.05858 17.9949 7.88126C17.5072 6.70393 16.6813 5.69766 15.6217 4.98969C14.5622 4.28172 13.3164 3.90384 12.0421 3.90384C10.7677 3.90384 9.52202 4.28172 8.46244 4.98969C7.40285 5.69766 6.577 6.70393 6.0893 7.88126C5.6016 9.05858 5.47396 10.3541 5.72252 11.604C5.97109 12.8538 6.58469 14.0019 7.48574 14.903L12.0421 19.4594L16.5984 14.903ZM12.0421 12.1876C11.5538 12.1876 11.0856 11.9937 10.7403 11.6484C10.3951 11.3032 10.2011 10.8349 10.2011 10.3467C10.2011 9.85845 10.3951 9.3902 10.7403 9.04495C11.0856 8.69971 11.5538 8.50575 12.0421 8.50575C12.5303 8.50575 12.9986 8.69971 13.3438 9.04495C13.6891 9.3902 13.883 9.85845 13.883 10.3467C13.883 10.8349 13.6891 11.3032 13.3438 11.6484C12.9986 11.9937 12.5303 12.1876 12.0421 12.1876Z" fill="#25241D"/>
</g>
<defs>
<clipPath id="clip0_530_1754">
<rect width="24" height="24" fill="white"/>
</clipPath>
</defs>
</svg>
